<?xml version="1.0" encoding="utf-8"?>
<!-- Generator: Adobe Illustrator 25.0.0, SVG Export Plug-In . SVG Version: 6.00 Build 0)  -->
<svg version="1.1" id="Calque_1" xmlns="http://www.w3.org/2000/svg" xmlns:xlink="http://www.w3.org/1999/xlink" x="0px" y="0px"
	 viewBox="0 0 91.1 92.8" style="enable-background:new 0 0 91.1 92.8;" xml:space="preserve">
<path d="M51.2,23.8c-10.1,0-18.2,8.3-18.2,18.4c0,10.1,8.3,18.2,18.4,18.2l0,0c10.1-0.1,18.2-8.3,18.2-18.4c0,0,0,0,0,0
	C69.5,31.9,61.3,23.8,51.2,23.8z M60.1,54.1c-2.1-0.8-5.5-2.1-5.9-3.1v-2c1.1-1,1.9-2.4,2.3-3.8c0.6-0.3,1-0.9,1-1.6
	c0-0.6-0.6-0.9-0.6-1.1c0-4.5,0.3-8.2-5.6-8.1c-5.5,0-5.4,3.5-5.4,8c0,0.2-0.7,0.4-0.6,1.4c0.1,0.7,0.5,1.3,1.1,1.7
	c0.4,1.4,1.2,2.7,2.2,3.8c-0.1,0.6-0.1,1.2-0.1,1.8c-0.2,1.1-3.7,2.3-5.9,3.1c-3.6-2.7-6-7-6-11.9c0-8.2,6.6-14.8,14.8-14.8
	S66.1,34,66.1,42.2C66.1,47.1,63.7,51.4,60.1,54.1z"/>
</svg>
