<?xml version="1.0" encoding="utf-8"?>
<!-- Generator: Adobe Illustrator 25.0.0, SVG Export Plug-In . SVG Version: 6.00 Build 0)  -->
<svg version="1.1" id="Calque_1" xmlns="http://www.w3.org/2000/svg" xmlns:xlink="http://www.w3.org/1999/xlink" x="0px" y="0px"
	 viewBox="0 0 91.1 92.8" style="enable-background:new 0 0 91.1 92.8;" xml:space="preserve">
<style type="text/css">
	.st0{fill:#00FFB1;}
</style>
<g>
	<path id="Tracé_976_1_" class="st0" d="M50.9,41.8l-5.1,5.1L44,45.1c-0.2-0.2-0.4-0.2-0.6,0c-0.2,0.2-0.2,0.4,0,0.6l2.1,2.2
		c0.1,0.1,0.2,0.1,0.3,0.1c0.1,0,0.2,0,0.3-0.1l5.4-5.4c0.2-0.2,0.2-0.4,0-0.6C51.3,41.7,51,41.7,50.9,41.8L50.9,41.8z"/>
	<path class="st0" d="M45.8,48.5C45.8,48.5,45.8,48.5,45.8,48.5c-0.3,0-0.5-0.1-0.7-0.3L43,46c-0.4-0.4-0.4-1,0-1.3
		c0.4-0.4,1-0.4,1.3,0l1.4,1.4l4.7-4.7h0c0.2-0.2,0.4-0.3,0.6-0.3h0c0.3,0,0.5,0.1,0.7,0.3c0.4,0.4,0.4,1,0,1.3l-5.4,5.4
		C46.3,48.4,46,48.5,45.8,48.5z"/>
</g>
<g>
	<path id="Tracé_975_1_" class="st0" d="M47.4,35.7c-5,0-9.1,4.1-9.1,9.1s4.1,9.1,9.1,9.1s9.1-4.1,9.1-9.1S52.4,35.7,47.4,35.7
		C47.4,35.7,47.4,35.7,47.4,35.7z M47.4,53c-4.5,0-8.2-3.7-8.2-8.2s3.7-8.2,8.2-8.2c4.5,0,8.2,3.7,8.2,8.2C55.7,49.3,52,53,47.4,53
		C47.4,53,47.4,53,47.4,53z"/>
	<path class="st0" d="M47.4,54.4c-5.3,0-9.6-4.3-9.6-9.6c0-5.3,4.3-9.6,9.6-9.6c5.3,0,9.6,4.3,9.6,9.6C57,50.1,52.7,54.4,47.4,54.4z
		 M47.4,52.5L47.4,52.5c2.1,0,4-0.8,5.5-2.3c1.5-1.5,2.3-3.4,2.3-5.5c0-4.3-3.5-7.7-7.7-7.7c0,0,0,0,0,0c-4.3,0-7.7,3.5-7.7,7.7
		c0,2.1,0.8,4,2.3,5.5C43.4,51.7,45.4,52.5,47.4,52.5z"/>
</g>
</svg>
