<svg xmlns="http://www.w3.org/2000/svg" width="14.422" height="14.423" viewBox="0 0 14.422 14.423"><defs><style>.a{fill:#ce2230;}</style></defs><path class="a" d="M19.7,10.78H18.385V9.469a.4.4,0,0,0-.03-.151.393.393,0,0,0-.085-.127L14.861,5.783a.4.4,0,0,0-.278-.116H7.765a.393.393,0,0,0-.393.393v4.72H6.06a.393.393,0,0,0-.393.393v5.113a.393.393,0,0,0,.393.393H7.372V19.7a.393.393,0,0,0,.393.393H17.992a.393.393,0,0,0,.393-.393V16.681H19.7a.393.393,0,0,0,.393-.393V11.174A.393.393,0,0,0,19.7,10.78ZM14.976,7.01l2.066,2.066H14.976ZM8.158,6.454H14.19V9.469a.393.393,0,0,0,.393.393H17.6v.918H8.158ZM17.6,19.3H8.158V14.976H17.6Zm1.7-3.409h-.918V14.582a.393.393,0,0,0-.393-.393H7.765a.393.393,0,0,0-.393.393v1.311H6.454V11.567H19.3Zm-2.622.393a.393.393,0,0,1-.393.393H9.469a.393.393,0,0,1,0-.787h6.818A.393.393,0,0,1,16.681,16.287Zm0,1.7a.393.393,0,0,1-.393.393H9.469a.393.393,0,1,1,0-.787h6.818A.393.393,0,0,1,16.681,17.992Zm1.311-5.507a.394.394,0,1,1-.393.394A.393.393,0,0,1,17.992,12.485Z" transform="translate(-5.667 -5.667)"/></svg>