<?xml version="1.0" encoding="UTF-8"?><!DOCTYPE svg PUBLIC "-//W3C//DTD SVG 1.1//EN" "http://www.w3.org/Graphics/SVG/1.1/DTD/svg11.dtd"><svg xmlns="http://www.w3.org/2000/svg" xmlns:xlink="http://www.w3.org/1999/xlink" version="1.1" id="Icons" x="0px" y="0px" width="100px" height="100px" viewBox="0 0 100 100" xml:space="preserve"><path id="LinkedIn" d="M95 59.727V93H75.71V61.955c0-7.799-2.79-13.121-9.773-13.121-5.33 0-8.502 3.587-9.897 7.056-.509 1.241-.64 2.967-.64 4.704V93H36.104s.26-52.58 0-58.028h19.295v8.225c-.039.062-.09.128-.127.188h.127v-.188c2.563-3.948 7.141-9.588 17.388-9.588C85.483 33.609 95 41.903 95 59.727zM15.919 7C9.318 7 5 11.33 5 17.024c0 5.57 4.193 10.031 10.663 10.031h.129c6.729 0 10.914-4.46 10.914-10.031C26.579 11.33 22.521 7 15.919 7zM6.146 93h19.289V34.972H6.146V93z"/><metadata><rdf:RDF xmlns:rdf="http://www.w3.org/1999/02/22-rdf-syntax-ns#" xmlns:rdfs="http://www.w3.org/2000/01/rdf-schema#" xmlns:dc="http://purl.org/dc/elements/1.1/"><rdf:Description about="https://iconscout.com/legal#licenses" dc:title="linkedin" dc:description="linkedin" dc:publisher="Iconscout" dc:date="2018-02-25" dc:format="image/svg+xml" dc:language="en"><dc:creator><rdf:Bag><rdf:li>Icons Mind</rdf:li></rdf:Bag></dc:creator></rdf:Description></rdf:RDF></metadata></svg>