<svg xmlns="http://www.w3.org/2000/svg" width="21.012" height="21.042" viewBox="0 0 21.012 21.042"><g transform="translate(0)"><path d="M39.323,74.838H52.105a.625.625,0,0,0,.623-.623V73.123a.625.625,0,0,0-.623-.623H39.323a.625.625,0,0,0-.623.623v1.091A.625.625,0,0,0,39.323,74.838Z" transform="translate(-31.717 -54.949)"/><path d="M39.323,48.538H52.105a.625.625,0,0,0,.623-.623V46.823a.625.625,0,0,0-.623-.623H39.323a.625.625,0,0,0-.623.623v1.091a.625.625,0,0,0,.623.623Z" transform="translate(-31.717 -36.848)"/><path d="M39.323,22.338H52.105a.625.625,0,0,0,.623-.623V20.623A.625.625,0,0,0,52.105,20H39.323a.625.625,0,0,0-.623.623v1.091a.625.625,0,0,0,.623.623Z" transform="translate(-31.717 -18.815)"/><ellipse cx="2.338" cy="2.338" rx="2.338" ry="2.338" transform="translate(0 16.366)"/><ellipse cx="2.338" cy="2.338" rx="2.338" ry="2.338" transform="translate(0 8.199)"/><ellipse cx="2.302" cy="2.302" rx="2.302" ry="2.302" transform="translate(0 0)"/></g></svg>