<svg xmlns="http://www.w3.org/2000/svg" width="21.043" height="21.043" viewBox="0 0 21.043 21.043"><g transform="translate(0)"><g transform="translate(6.652 1.087)"><path d="M27.711,42.476H40.88a.608.608,0,0,0,.611-.611V40.711a.608.608,0,0,0-.611-.611H27.711a.608.608,0,0,0-.611.611v1.154A.608.608,0,0,0,27.711,42.476Z" transform="translate(-27.1 -23.198)"/><path d="M27.711,29.976H40.88a.608.608,0,0,0,.611-.611V28.211a.608.608,0,0,0-.611-.611H27.711a.608.608,0,0,0-.611.611v1.154A.608.608,0,0,0,27.711,29.976Z" transform="translate(-27.1 -19.183)"/><path d="M27.711,17.576H40.88a.608.608,0,0,0,.611-.611V15.811a.608.608,0,0,0-.611-.611H27.711a.608.608,0,0,0-.611.611v1.154A.608.608,0,0,0,27.711,17.576Z" transform="translate(-27.1 -15.2)"/></g><g transform="translate(0.068 0)"><path d="M3.408,4.337H2.322V1.622l-.2.2-.475.339L1.1,1.486,2.458.4h.95Z" transform="translate(-1.1 -0.4)"/></g><g transform="translate(0 8.757)"><path d="M3.851,17.3H1v-.679l.95-.95a3.435,3.435,0,0,0,.543-.611.937.937,0,0,1,.2-.272.249.249,0,0,0,.068-.2.408.408,0,0,0-.068-.272.509.509,0,0,0-.339-.068.519.519,0,0,0-.339.136c-.068.068-.339.136-.475.272L1,13.979a2.166,2.166,0,0,1,.475-.407,3.309,3.309,0,0,1,.475-.2,1.5,1.5,0,0,1,.543-.068,2.008,2.008,0,0,1,.679.136.913.913,0,0,1,.475.407.816.816,0,0,1,.136.543.861.861,0,0,1-.068.407c-.068.136-.068.272-.2.407s-.2.272-.339.407l-.815.815H3.851Z" transform="translate(-1 -13.3)"/></g><g transform="translate(0 17.038)"><path d="M3.715,26.315a.83.83,0,0,1-.2.611,2.968,2.968,0,0,1-.679.407h0c.679.068.95.407.95.95a1.2,1.2,0,0,1-.407.882,1.648,1.648,0,0,1-1.222.339,1.879,1.879,0,0,1-.611-.068c-.2-.068-.339-.068-.543-.136v-.882a4.677,4.677,0,0,0,.543.2c.2.068.339-.068.475-.068.2,0,.407,0,.475-.068a.353.353,0,0,0,.136-.272c0-.136,0-.2-.068-.272s-.068-.136-.2-.136-.272-.068-.475-.068h-.2v-.815H1.95q.815,0,.815-.407c0-.136-.068-.2-.136-.2s-.272-.068-.407-.068a1.131,1.131,0,0,0-.747.272l-.407-.679a1.22,1.22,0,0,1,.611-.272c.2,0,.475-.068.747-.068a1.327,1.327,0,0,1,.95.272C3.58,25.975,3.715,26.043,3.715,26.315Z" transform="translate(-1 -25.5)"/></g></g></svg>