<?xml version="1.0" encoding="utf-8"?>
<!-- Generator: Adobe Illustrator 25.0.0, SVG Export Plug-In . SVG Version: 6.00 Build 0)  -->
<svg version="1.1" id="Calque_1" xmlns="http://www.w3.org/2000/svg" xmlns:xlink="http://www.w3.org/1999/xlink" x="0px" y="0px"
	 viewBox="0 0 91.1 92.8" style="enable-background:new 0 0 91.1 92.8;" xml:space="preserve">
<g id="Groupe_1945">
	<path id="Tracé_904" d="M49.4,46.1c3.2,0,5.9-2.6,5.9-5.9c0-3.2-2.6-5.9-5.9-5.9s-5.9,2.6-5.9,5.9l0,0
		C43.6,43.5,46.2,46.1,49.4,46.1z M49.4,47.5c-4,0-7.2-3.2-7.2-7.2s3.2-7.2,7.2-7.2s7.2,3.2,7.2,7.2l0,0
		C56.6,44.3,53.4,47.5,49.4,47.5z M55.5,47.6c-0.4-0.4-0.4-0.9,0-1.3c0.4-0.4,0.9-0.4,1.3,0l3.2,3.2c0.4,0.4,0.4,0.9,0,1.3
		c-0.4,0.4-0.9,0.4-1.3,0l0,0L55.5,47.6z"/>
</g>
</svg>
