<?xml version="1.0" encoding="utf-8"?>
<!-- Generator: Adobe Illustrator 25.0.0, SVG Export Plug-In . SVG Version: 6.00 Build 0)  -->
<svg version="1.1" id="Calque_1" xmlns="http://www.w3.org/2000/svg" xmlns:xlink="http://www.w3.org/1999/xlink" x="0px" y="0px"
	 viewBox="0 0 91.1 92.8" style="enable-background:new 0 0 91.1 92.8;" xml:space="preserve">
<style type="text/css">
	.st0{fill:#6E6C92;}
</style>
<g>
	<path class="st0" d="M61.1,40.5c0-10.1-8.3-18.2-18.4-18.2c-10.1,0-18.2,8.3-18.2,18.4c0,10.1,8.3,18.2,18.4,18.2l0,0
		C53,58.8,61.1,50.6,61.1,40.5C61.1,40.5,61.1,40.5,61.1,40.5z M51.6,52.6c-2.1-0.8-5.5-2.1-5.9-3.1v-2c1.1-1,1.9-2.4,2.3-3.8
		c0.6-0.3,1-0.9,1-1.6c0-0.6-0.6-0.9-0.6-1.1c0-4.5,0.3-8.2-5.6-8.1c-5.5,0-5.4,3.5-5.4,8c0,0.2-0.7,0.4-0.6,1.4
		c0.1,0.7,0.5,1.3,1.1,1.7c0.4,1.4,1.2,2.7,2.2,3.8C40,48.2,40,48.8,40,49.4c-0.2,1.1-3.7,2.3-5.9,3.1c-3.6-2.7-6-7-6-11.9
		c0-8.2,6.6-14.8,14.8-14.8c8.2,0,14.8,6.6,14.8,14.8C57.7,45.6,55.3,49.9,51.6,52.6z"/>
	<path class="st0" d="M69.5,63.1L61.3,56c0,0,0,0-0.1-0.1C60.3,55,58.9,55.1,58,56c-0.9,0.9-0.8,2.3,0.1,3.2l8.2,7.2
		c0.9,0.8,2.3,0.8,3.1,0C70.3,65.5,70.3,64.1,69.5,63.1z"/>
</g>
</svg>
